<svg xmlns="http://www.w3.org/2000/svg">
    <defs>
        <symbol id="logo" fill="currentColor" viewBox="0 0 52 52">
            <path d="M49.1393 16.4156L49.0128 16.1073L48.7779 16.3435L44.0983 21.0479L44.009 21.1376L44.0411 21.26C44.4323 22.7514 44.6281 24.2924 44.6281 25.8834C44.6281 36.2098 36.2346 44.6034 25.9082 44.6034C15.5568 44.6034 7.1635 36.2097 7.1635 25.8834C7.1635 24.2672 7.3594 22.7015 7.75049 21.2105L7.7826 21.0881L7.69336 20.9984L3.01379 16.294L2.77804 16.057L2.65209 16.3667C1.45339 19.3135 0.778814 22.5109 0.778814 25.8834C0.778814 39.7224 12.0444 50.9881 25.8834 50.9881C39.7224 50.9881 50.9881 39.7224 50.9881 25.8834C50.9881 22.5368 50.3387 19.3391 49.1393 16.4156ZM41.4469 15.4838L41.5967 15.7073L41.787 15.517L46.0456 11.2583L46.1805 11.1235L46.067 10.9703C41.4962 4.80102 34.1522 0.778814 25.8834 0.778814C17.6397 0.778814 10.2956 4.77597 5.72469 10.9455L5.61116 11.0987L5.74601 11.2336L10.0047 15.4922L10.1949 15.6825L10.3448 15.459C13.1835 11.2253 17.7106 8.2157 22.9465 7.38368C23.9004 7.23696 24.8793 7.1635 25.8834 7.1635C26.8876 7.1635 27.8666 7.23696 28.8205 7.38369C34.0805 8.21564 38.6078 11.2497 41.4469 15.4838Z" fill="currentColor" stroke="currentColor" stroke-width="0.442372"/>
            <path d="M29.0835 3.422V3.20081H28.8623L22.92 3.20081L22.6988 3.20081V3.422L22.6988 26.4732V26.6944H22.92H28.8623H29.0835V26.4732L29.0835 3.422Z" fill="currentColor" stroke="currentColor" stroke-width="0.442372"/>
        </symbol>
        <symbol id="appStore" fill="currentColor" viewBox="0 0 35 35">
            <path d="M17.5003 34.5832C8.0652 34.5832 0.416992 26.935 0.416992 17.4998C0.416992 8.06471 8.0652 0.416504 17.5003 0.416504C26.9355 0.416504 34.5837 8.06471 34.5837 17.4998C34.5734 26.9298 26.9303 34.5729 17.5003 34.5832ZM10.2006 22.261C9.98024 22.261 9.76158 22.2883 9.54633 22.3395L9.29008 22.4096L8.27533 24.147C8.08997 24.4561 8.03045 24.8247 8.10907 25.1765C8.18768 25.5283 8.39842 25.8365 8.69775 26.0373C8.99708 26.2382 9.36213 26.3164 9.71748 26.2558C10.0728 26.1953 10.3913 26.0005 10.6072 25.7118L10.7131 25.5529L12.0627 23.2108C11.844 22.9183 11.5605 22.6803 11.2345 22.5155C10.9085 22.3507 10.5488 22.2636 10.1835 22.261H10.2006ZM19.5691 11.794C19.0376 12.2933 18.6852 12.9537 18.5663 13.6732C18.3759 14.6653 18.5584 15.6927 19.0788 16.5585L24.2722 25.5546C24.4529 25.8587 24.7411 26.084 25.0799 26.1858C25.4187 26.2877 25.7833 26.2587 26.1018 26.1047C26.4193 25.9481 26.6661 25.6774 26.7928 25.3468C26.9195 25.0162 26.9167 24.6499 26.7851 24.3212L26.7014 24.1504L25.3347 21.7741H27.3677C27.7237 21.7711 28.0653 21.6332 28.3236 21.3881C28.5819 21.1431 28.7376 20.8092 28.7592 20.4538C28.7809 20.0984 28.667 19.7481 28.4404 19.4734C28.2138 19.1988 27.8915 19.0204 27.5385 18.9741L27.3677 18.9639H23.7118L19.9637 12.4722L19.5725 11.7889L19.5691 11.794ZM7.69449 18.9519C7.51092 18.9524 7.32923 18.989 7.15985 19.0598C6.99046 19.1306 6.8367 19.2341 6.70736 19.3643C6.57803 19.4946 6.47567 19.6491 6.40615 19.819C6.33663 19.9889 6.3013 20.1709 6.3022 20.3545C6.3022 21.0617 6.82837 21.6596 7.53049 21.7502L7.70133 21.7587H20.4797C20.6211 21.4747 20.6922 21.161 20.6872 20.8438C20.6821 20.5266 20.601 20.2152 20.4506 19.9359C20.3227 19.6742 20.1321 19.4483 19.8958 19.2781C19.6594 19.1079 19.3846 18.9988 19.0959 18.9605L18.8892 18.9502H14.5312L20.5582 8.514C20.7439 8.19049 20.7942 7.80675 20.6983 7.4463C20.6301 7.19334 20.4926 6.96445 20.3014 6.78538C20.1102 6.6063 19.8727 6.48415 19.6158 6.43267C19.359 6.38118 19.0928 6.40241 18.8473 6.49396C18.6019 6.58551 18.3868 6.74375 18.2264 6.95088L18.1205 7.10805L17.5003 8.19113L16.887 7.10805C16.7063 6.80352 16.4177 6.57798 16.0786 6.4761C15.7394 6.37423 15.3743 6.40344 15.0557 6.55796C14.7383 6.71521 14.4918 6.98621 14.3651 7.31702C14.2385 7.64782 14.2411 8.01418 14.3724 8.34317L14.4561 8.514L15.874 11.0082L11.2871 18.9519H7.69449Z" fill="white"/>
        </symbol>
        <symbol id="playMarket" fill="currentColor" viewBox="0 0 32 31">
            <path d="M17.2885 15.0776L22.8329 10.1633L4.92476 1.24203C3.73788 0.673648 2.62601 0.593876 1.65101 1.21544L17.2885 15.0776ZM23.7779 20.8312L29.5416 17.9577C30.6666 17.3993 31.2835 16.6083 31.2835 15.7308C31.2835 14.8549 30.6666 14.0622 29.5435 13.5038L24.3254 10.9062L18.451 16.1113L23.7779 20.8312ZM0.687256 2.42366C0.567256 2.75106 0.499756 3.11669 0.499756 3.51721V27.9559C0.499756 28.5891 0.657256 29.1342 0.942256 29.568L16.1241 16.1097L0.687256 2.42366ZM17.2885 17.1401L2.19101 30.5236C2.47976 30.6217 2.79101 30.6732 3.11913 30.6732C3.70413 30.6732 4.31351 30.5203 4.93413 30.2145L22.2873 21.5774L17.2885 17.1401Z" fill="white"/>
        </symbol>
        <symbol id="1" fill="currentColor" viewBox="0 0 65 65">
            <path d="M59.8302 19.8391L59.6756 19.4624L59.3885 19.7511L53.6696 25.5002L53.5606 25.6098L53.5998 25.7594C54.0779 27.5821 54.3172 29.4652 54.3172 31.4096C54.3172 44.0293 44.0596 54.2869 31.4399 54.2869C18.7897 54.2869 8.5323 44.0291 8.5323 31.4096C8.5323 29.4344 8.77171 27.521 9.24966 25.6988L9.28889 25.5493L9.17983 25.4396L3.46101 19.6906L3.17292 19.4009L3.01899 19.7793C1.55408 23.3806 0.729692 27.2881 0.729692 31.4096C0.729692 48.322 14.4972 62.0895 31.4096 62.0895C48.322 62.0895 62.0895 48.322 62.0895 31.4096C62.0895 27.3198 61.2959 23.4119 59.8302 19.8391ZM50.4294 18.7004L50.6125 18.9735L50.845 18.741L56.0495 13.5365L56.2143 13.3717L56.0755 13.1845C50.4897 5.64515 41.5148 0.729692 31.4096 0.729692C21.3351 0.729692 12.36 5.61454 6.77395 13.1542L6.63522 13.3415L6.80001 13.5063L12.0044 18.7107L12.237 18.9432L12.4201 18.6701C15.8893 13.4962 21.4218 9.81817 27.8204 8.80138C28.9861 8.62207 30.1825 8.5323 31.4096 8.5323C32.6368 8.5323 33.8332 8.62208 34.999 8.8014C41.4272 9.81813 46.9598 13.5259 50.4294 18.7004Z" fill="#75BF7A" stroke="#75BF7A" stroke-width="0.540615"/>
            <path d="M30.5827 19.1247L24.3411 21.3758L25.6713 26.0486L29.9006 24.8889V43H35.3578V19.1247H30.5827Z" fill="#75BF7A"/>
        </symbol>
        <symbol id="2" fill="currentColor" viewBox="0 0 65 65">
            <path d="M59.8302 19.8391L59.6756 19.4624L59.3885 19.7511L53.6696 25.5002L53.5606 25.6098L53.5998 25.7594C54.0779 27.5821 54.3172 29.4652 54.3172 31.4096C54.3172 44.0293 44.0596 54.2869 31.4399 54.2869C18.7897 54.2869 8.5323 44.0291 8.5323 31.4096C8.5323 29.4344 8.77171 27.521 9.24966 25.6988L9.28889 25.5493L9.17983 25.4396L3.46101 19.6906L3.17292 19.4009L3.01899 19.7793C1.55408 23.3806 0.729692 27.2881 0.729692 31.4096C0.729692 48.322 14.4972 62.0895 31.4096 62.0895C48.322 62.0895 62.0895 48.322 62.0895 31.4096C62.0895 27.3198 61.2959 23.4119 59.8302 19.8391ZM50.4294 18.7004L50.6125 18.9735L50.845 18.741L56.0495 13.5365L56.2143 13.3717L56.0755 13.1845C50.4897 5.64515 41.5148 0.729692 31.4096 0.729692C21.3351 0.729692 12.36 5.61454 6.77395 13.1542L6.63522 13.3415L6.80001 13.5063L12.0044 18.7107L12.237 18.9432L12.4201 18.6701C15.8893 13.4962 21.4218 9.81817 27.8204 8.80138C28.9861 8.62207 30.1825 8.5323 31.4096 8.5323C32.6368 8.5323 33.8332 8.62208 34.999 8.8014C41.4272 9.81813 46.9598 13.5259 50.4294 18.7004Z" fill="#75BF7A" stroke="#75BF7A" stroke-width="0.540615"/>
            <path d="M23.1573 43H39.3924V37.7474H31.3772L35.3336 33.7569C37.5165 31.574 39.0513 29.1182 39.0513 26.2532C39.0513 21.4441 35.2313 18.6472 30.9679 18.6472C27.6594 18.6472 24.4533 20.3185 22.9185 23.8657L27.523 26.5602C28.1711 25.0595 29.3648 23.968 31.0361 23.968C32.6391 23.968 33.5941 24.9912 33.5941 26.492C33.5941 27.8904 32.5709 29.2888 31.1725 30.7213L23.1573 39.0435V43Z" fill="#75BF7A"/>
        </symbol>
        <symbol id="3" fill="currentColor" viewBox="0 0 65 65">
            <path d="M59.8302 19.8391L59.6756 19.4624L59.3885 19.7511L53.6696 25.5002L53.5606 25.6098L53.5998 25.7594C54.0779 27.5821 54.3172 29.4652 54.3172 31.4096C54.3172 44.0293 44.0596 54.2869 31.4399 54.2869C18.7897 54.2869 8.5323 44.0291 8.5323 31.4096C8.5323 29.4344 8.77171 27.521 9.24966 25.6988L9.28889 25.5493L9.17983 25.4396L3.46101 19.6906L3.17292 19.4009L3.01899 19.7793C1.55408 23.3806 0.729692 27.2881 0.729692 31.4096C0.729692 48.322 14.4972 62.0895 31.4096 62.0895C48.322 62.0895 62.0895 48.322 62.0895 31.4096C62.0895 27.3198 61.2959 23.4119 59.8302 19.8391ZM50.4294 18.7004L50.6125 18.9735L50.845 18.741L56.0495 13.5365L56.2143 13.3717L56.0755 13.1845C50.4897 5.64515 41.5148 0.729692 31.4096 0.729692C21.3351 0.729692 12.36 5.61454 6.77395 13.1542L6.63522 13.3415L6.80001 13.5063L12.0044 18.7107L12.237 18.9432L12.4201 18.6701C15.8893 13.4962 21.4218 9.81817 27.8204 8.80138C28.9861 8.62207 30.1825 8.5323 31.4096 8.5323C32.6368 8.5323 33.8332 8.62208 34.999 8.8014C41.4272 9.81813 46.9598 13.5259 50.4294 18.7004Z" fill="#75BF7A" stroke="#75BF7A" stroke-width="0.540615"/>
            <path d="M34.7777 29.811L38.9047 24.5585V20.1245H23.5563V25.2406H32.2878L27.9562 30.7319L30.0367 33.8357H31.1623C33.4134 33.8357 34.4025 35.0295 34.4025 36.4961C34.4025 37.9627 33.4134 39.1565 31.1623 39.1565C29.0817 39.1565 28.0585 38.2015 27.5128 36.6325L22.8059 39.3611C24.2725 42.8742 27.5469 44.4773 31.1623 44.4773C35.7668 44.4773 39.8597 41.7487 39.8597 36.4961C39.8597 33.1877 37.7109 30.8343 34.7777 29.811Z" fill="#75BF7A"/>
        </symbol>
        <symbol id="4" fill="currentColor" viewBox="0 0 65 65">
            <path d="M40.5488 33.132H38.1612V28.0159H32.6358V33.132H27.6561L35.2621 18.1247H29.3956L21.7896 33.132V38.18H32.6358V42H38.1612V38.18H40.5488V33.132Z" fill="#75BF7A"/>
            <path d="M59.8302 19.8391L59.6756 19.4624L59.3885 19.7511L53.6696 25.5002L53.5606 25.6098L53.5998 25.7594C54.0779 27.5821 54.3172 29.4652 54.3172 31.4096C54.3172 44.0293 44.0596 54.2869 31.4399 54.2869C18.7897 54.2869 8.5323 44.0291 8.5323 31.4096C8.5323 29.4344 8.77171 27.521 9.24966 25.6988L9.28889 25.5493L9.17983 25.4396L3.46101 19.6906L3.17292 19.4009L3.01899 19.7793C1.55408 23.3806 0.729692 27.2881 0.729692 31.4096C0.729692 48.322 14.4972 62.0895 31.4096 62.0895C48.322 62.0895 62.0895 48.322 62.0895 31.4096C62.0895 27.3198 61.2959 23.4119 59.8302 19.8391ZM50.4294 18.7004L50.6125 18.9735L50.845 18.741L56.0495 13.5365L56.2143 13.3717L56.0755 13.1845C50.4897 5.64515 41.5148 0.729692 31.4096 0.729692C21.3351 0.729692 12.36 5.61454 6.77395 13.1542L6.63522 13.3415L6.80001 13.5063L12.0044 18.7107L12.237 18.9432L12.4201 18.6701C15.8893 13.4962 21.4218 9.81817 27.8204 8.80138C28.9861 8.62207 30.1825 8.5323 31.4096 8.5323C32.6368 8.5323 33.8332 8.62208 34.999 8.8014C41.4272 9.81813 46.9598 13.5259 50.4294 18.7004Z" fill="#75BF7A" stroke="#75BF7A" stroke-width="0.540615"/>
        </symbol>
        <symbol id="close" fill="#000000" width="30" height="30" viewBox="0 0 32 32" xmlns="http://www.w3.org/2000/svg">
            <path d="M18.8,16l5.5-5.5c0.8-0.8,0.8-2,0-2.8l0,0C24,7.3,23.5,7,23,7c-0.5,0-1,0.2-1.4,0.6L16,13.2l-5.5-5.5  c-0.8-0.8-2.1-0.8-2.8,0C7.3,8,7,8.5,7,9.1s0.2,1,0.6,1.4l5.5,5.5l-5.5,5.5C7.3,21.9,7,22.4,7,23c0,0.5,0.2,1,0.6,1.4  C8,24.8,8.5,25,9,25c0.5,0,1-0.2,1.4-0.6l5.5-5.5l5.5,5.5c0.8,0.8,2.1,0.8,2.8,0c0.8-0.8,0.8-2.1,0-2.8L18.8,16z"/>
        </symbol>
        <symbol id="open" width="23" height="18" viewBox="0 0 35 35" xmlns="http://www.w3.org/2000/svg">
            <path d="M4 18L20 18" stroke="#000000" stroke-width="2" stroke-linecap="round"/>
            <path d="M4 12L20 12" stroke="#000000" stroke-width="2" stroke-linecap="round"/>
            <path d="M4 6L20 6" stroke="#000000" stroke-width="2" stroke-linecap="round"/>
        </symbol>
    </defs>
</svg>
